# xmcd
#
# Track frame offsets:
#	150
#	19621
#	33895
#	46585
#	74139
#	96247
#	104989
#	119928
#	134748
#	151166
#
# Disc length: 2181 seconds
#
# Revision: 1
# Processed by: cddbd v1.5.2PL0 Copyright (c) Steve Scherf et al.
# Submitted via: audiograbber 1.83.01
#
DISCID=9208830a
DTITLE=Baird Sisters - Lonely Town
DYEAR=1900
DGENRE=
TTITLE0=01 Sugar Baby
TTITLE1=02 Silver Raven
TTITLE2=03 Lavender Gray
TTITLE3=04 Spinning Wheel - Rocket
TTITLE4=05 The Three Babes
TTITLE5=06 Over the Waterfall
TTITLE6=07 Little Maggie
TTITLE7=08 Flower for Your Hair
TTITLE8=09 Lonely Town
TTITLE9=10 In the Morning
EXTD=
EXTT0=
EXTT1=
EXTT2=
EXTT3=
EXTT4=
EXTT5=
EXTT6=
EXTT7=
EXTT8=
EXTT9=
PLAYORDER=
